<svg xmlns="http://www.w3.org/2000/svg" width="32" height="32"><!--! Font Awesome Pro 6.1.1 by @fontawesome - https://fontawesome.com License - https://fontawesome.com/license (Commercial License) Copyright 2022 Fonticons, Inc.--><path d="M0 16C0 7.163 7.162 0 16 0c8.837 0 16 7.163 16 16s-7.163 16-16 16C7.162 32 0 24.837 0 16Zm6.43-5.65 5.578 5.568-5.579 5.674c-1.103 1.115-1.103 2.915 0 3.924 1.113 1.207 2.914 1.207 3.92 0l5.57-5.475 5.673 5.473c1.115 1.21 2.915 1.21 3.924 0 1.207-1.007 1.207-2.807 0-3.922l-5.475-5.674 5.473-5.569c1.21-1.006 1.21-2.807 0-3.92-1.007-1.103-2.807-1.103-3.92 0l-5.676 5.579-5.569-5.579c-1.006-1.103-2.807-1.103-3.92 0-1.103 1.113-1.103 2.914 0 3.92z" style="fill:#ffd17c;fill-opacity:1;stroke-width:.0624998"/></svg>