<svg xmlns="http://www.w3.org/2000/svg" width="128" height="128" viewBox="0 0 33.866 33.866"><path d="M12.669 4.47c-2.9 1.184-6.034 3.476-7.826 7.18-1.545 3.256-1.545 7.407 0 10.666 1.304 2.727 4.397 5.739 7.084 6.96 2.686 1.181 7.327 1.181 10.014 0 2.686-1.221 5.78-4.234 7.08-6.96 1.548-3.257 1.548-7.409 0-10.666-1.301-2.726-4.434-5.78-7.04-6.92-2.158-.895-5.446-1.649-9.312-.258Zm8.579 5.39c5.414 3.175 5.334 11.11-.162 14.328-7.288 4.274-15.672-4.03-11.357-11.357 2.442-4.152 7.327-5.414 11.519-2.971Z" style="fill:#000;stroke:none;stroke-width:.0407054"/></svg>