<svg xmlns="http://www.w3.org/2000/svg" width="128" height="128" viewBox="0 0 33.866 33.866"><path d="M4.949 4.21c-1.716 1.277-1.622 2.25 3.296 7.663 2.323 2.555 4.274 4.83 4.274 5.063 0 .233-1.938 2.463-4.26 5.018-4.691 5.109-5.214 6.454-3.218 7.755 1.532 1.021 2.229.603 7.43-4.274 2.323-2.09 4.32-3.855 4.46-3.855.14 0 2.136 1.765 4.459 3.855 5.2 4.877 5.898 5.295 7.43 4.272 1.998-1.299 1.487-2.6-3.158-7.71-2.369-2.553-4.318-4.828-4.318-5.061 0-.232 1.95-2.508 4.272-5.063 4.69-5.108 5.202-6.409 3.204-7.71-1.532-1.021-2.229-.604-7.43 4.273-2.323 2.09-4.32 3.855-4.46 3.855-.139 0-2.136-1.764-4.459-3.855-5.28-5.074-6.02-5.268-7.522-4.226Z" style="fill:#000;stroke-width:.464445"/></svg>